<?xml version="1.0" standalone="no"?><!DOCTYPE svg PUBLIC "-//W3C//DTD SVG 1.1//EN" "http://www.w3.org/Graphics/SVG/1.1/DTD/svg11.dtd"><svg class="icon" style="" viewBox="0 0 1024 1024" version="1.1" xmlns="http://www.w3.org/2000/svg" p-id="4265" xmlns:xlink="http://www.w3.org/1999/xlink" width="200" height="200"><defs><style type="text/css"><![CDATA[

]]></style></defs><path d="M923.528216 55.95336 646.627698 55.95336c-19.351744 0-44.608987-12.283768-56.155974-27.304879 0 0-21.160949-27.625174-73.094762-27.625174-51.977815 0-73.138764 27.625174-73.138764 27.625174-11.505032 15.021112-36.762275 27.304879-56.111972 27.304879L111.221616 55.95336c-19.305695 0-35.165918 15.298428-35.165918 33.961486l0 5.257747c0 18.682501 15.860223 33.981952 35.165918 33.981952l812.3066 0c19.308765 0 35.170011-15.299451 35.170011-33.981952l0-5.257747C958.698227 71.251787 942.836981 55.95336 923.528216 55.95336zM883.621321 195.48116 151.132604 195.48116c-19.611663 0-37.795814 7.952112-49.995671 21.872147-12.151761 13.921058-17.279548 32.581046-14.005992 51.244104L206.813764 954.196191c6.03239 34.736129 39.304168 61.891605 75.680657 61.891605l469.721081 0c36.416398 0 69.64622-27.155477 75.724659-61.891605l119.682823-685.577291c3.27458-18.684548-1.854231-37.34556-14.009062-51.266617C921.460114 203.433272 903.188982 195.48116 883.621321 195.48116zM758.592746 942.900937c-0.385786 2.070148-4.176113 5.175883-6.376221 5.175883L282.495444 948.07682c-2.156106 0-5.948479-3.104711-6.335289-5.175883l-118.564349-679.475316 719.560266 0L758.592746 942.900937zM659.645177 856.966753c16.717753 0 32.968879-15.08558 36.112476-33.529651l73.568553-435.438277c3.146667-18.445094-10.169617-33.55114-29.523407-33.55114l-28.441772 0c-19.35072 0-36.633339 15.21247-38.358633 33.874505L632.403742 823.181275C630.679471 841.799308 642.919237 856.966753 659.645177 856.966753zM485.569536 823.093271c0.734734 18.706037 15.044648 33.962509 31.807427 33.962509 16.764825 0 31.072693-15.256472 31.763424-33.962509l16.46295-434.685123c0.687662-18.683525-14.569834-33.960463-33.875528-33.960463l-28.658713 0c-19.309788 0-34.567283 15.276938-33.875528 33.960463L485.569536 823.093271zM265.428743 387.998825l73.607438 435.523211c3.149736 18.445094 19.35379 33.533744 36.030611 33.533744 16.724917 0 28.963659-15.256472 27.239388-33.833573l-40.596604-434.900018c-1.726318-18.662035-18.96391-33.874505-38.358633-33.874505l-28.401864 0C275.59836 354.447684 262.323009 369.553731 265.428743 387.998825z" p-id="4266" fill="#2c2c2c"></path></svg>